<svg xmlns="http://www.w3.org/2000/svg" width="22" height="18">
    <path fill="#404040" fill-rule="evenodd" d="M14.281.76h1.067c.946.162 1.785.541 2.471 1.225.102.102.214.065.325.039a8.478 8.478 0 0 0 2.201-.841c.064-.036.14-.118.206-.06.063.056-.001.144-.028.213a4.234 4.234 0 0 1-1.354 1.819c-.06.047-.147.076-.169.168.084.031.15.008.218-.004a8.637 8.637 0 0 0 1.689-.489c.062-.024.144-.089.191-.037.066.073-.029.138-.07.195a8.039 8.039 0 0 1-1.71 1.783c-.179.136-.253.277-.246.504a11.335 11.335 0 0 1-.889 4.747c-1.583 3.782-4.307 6.269-8.336 7.244-.616.149-1.246.213-1.874.286H6.117c-.045-.009-.089-.024-.135-.027a11.132 11.132 0 0 1-2.625-.518c-1.011-.325-1.974-.753-2.852-1.357v-.046c.53.053 1.057.081 1.593.044a8.474 8.474 0 0 0 4.371-1.564c.059-.042.139-.068.16-.149-.009-.009-.013-.018-.019-.02a.742.742 0 0 0-.068-.011c-1.661-.17-2.848-1.015-3.573-2.515-.062-.128-.191-.294-.11-.403.081-.11.272-.021.415-.007.413.04.82.014 1.24-.092-.028-.028-.032-.036-.039-.038-.058-.02-.117-.038-.176-.057C3.165 10.418 2.32 9.7 1.773 8.64a3.965 3.965 0 0 1-.451-1.781c-.003-.17.056-.206.207-.129.227.116.464.212.712.275.265.068.528.155.855.131-.1-.087-.167-.147-.236-.205a4.272 4.272 0 0 1-1.082-5.118c.153-.314.171-.315.39-.06a11.989 11.989 0 0 0 8.146 4.161c.316.026.317.032.279-.273-.198-1.587.303-2.908 1.526-3.943.624-.529 1.363-.806 2.162-.938z"/>
</svg>
