<svg xmlns="http://www.w3.org/2000/svg" width="10" height="20">
    <path fill="#404040" fill-rule="evenodd" d="M.65 10.358V6.95c.095-.005.189-.014.283-.014.444-.002.889-.008 1.333.002.191.004.256-.067.252-.255-.009-.459 0-.918-.003-1.376-.004-.481-.005-.961.089-1.435.268-1.359.967-2.371 2.313-2.858C5.233.9 5.564.85 5.893.79h3.582c.006.065.017.13.017.195.001.946-.005 1.893.005 2.839.002.218-.081.27-.282.267-.574-.01-1.15-.008-1.724-.002-.671.007-.937.273-.946.946-.006.531-.003 1.062-.001 1.594.001.29.017.306.312.306.815.001 1.63.004 2.445-.002.182-.001.256.065.232.243-.007.051-.007.102-.012.153-.097.917-.204 1.834-.285 2.753-.02.234-.108.292-.323.289-.662-.009-1.324-.003-1.987-.003-.382 0-.383.001-.383.391v8.691c0 .145.014.291-.039.432H2.529c-.005-.123-.013-.247-.013-.371l-.001-8.845c0-.288-.009-.296-.293-.298l-1.572-.01z"/>
</svg>
