<svg xmlns="http://www.w3.org/2000/svg" width="16" height="11">
    <path fill-rule="evenodd" d="M10.518.855h-.47c-.79.202-1.095 1.181-.427 1.804.708.659 1.375 1.363 2.057 2.047.041.04.1.071.104.156h-.212l-9.675-.001c-.485-.001-.812.226-1.001.666a1.112 1.112 0 0 1-.046.1v.471c.116.45.508.805 1.111.803 3.084-.012 6.545-.006 9.631-.006.063 0 .132-.014.197.019-.024.072-.079.107-.122.15-.703.703-1.407 1.403-2.106 2.109-.403.406-.416.996-.042 1.413.138.152.315.238.499.315h.502a1.48 1.48 0 0 0 .51-.329c1.309-1.313 2.621-2.624 3.935-3.936a1.24 1.24 0 0 0 .328-.507v-.502c-.081-.222-.22-.4-.385-.564a2271.417 2271.417 0 0 1-3.802-3.802c-.172-.173-.355-.323-.586-.406z"/>
</svg>
