<svg xmlns="http://www.w3.org/2000/svg" width="20" height="20">
    <path fill="#404040" fill-rule="evenodd" d="M18.983 14.819c-.293 2.137-1.711 3.706-3.801 4.218-.411.1-.829.137-1.246.184H5.8c-.29-.036-.583-.054-.867-.112-2.1-.428-3.472-1.652-4.053-3.732-.108-.387-.143-.787-.191-1.185V5.851c.037-.275.059-.554.112-.827.354-1.792 1.334-3.083 3.049-3.779.521-.212 1.07-.304 1.623-.382h8.79c.147.023.295.044.442.069 1.824.31 3.139 1.289 3.903 2.984.254.562.363 1.164.439 1.772v8.668l-.064.463zm-1.615-8.456c0-.293.004-.586-.053-.875-.253-1.292-.925-2.239-2.21-2.677a4.254 4.254 0 0 0-1.366-.213 982.414 982.414 0 0 0-5.947 0c-.728.003-1.456-.019-2.185.03-1.803.121-3.128 1.462-3.142 3.266-.022 2.705-.008 5.409-.008 8.114 0 .17.013.339.036.508.265 1.968 1.689 2.901 3.321 2.924 2.683.039 5.368.011 8.052.013.178 0 .353-.023.528-.045 1.656-.201 2.929-1.573 2.96-3.238.025-1.383.005-2.766.005-4.149h.01c0-1.219.001-2.439-.001-3.658zm-2.593-.102c-.599-.013-1.095-.511-1.094-1.099a1.102 1.102 0 0 1 1.111-1.093c.621.005 1.085.482 1.081 1.11a1.09 1.09 0 0 1-1.098 1.082zm-4.943 8.487c-2.587-.025-4.745-2.163-4.702-4.76-.042-2.399 1.917-4.741 4.746-4.742a4.74 4.74 0 0 1 4.748 4.756c-.008 2.849-2.377 4.77-4.792 4.746zm.043-7.742c-1.652 0-2.997 1.336-2.999 2.978a3.004 3.004 0 0 0 2.995 3.009 2.992 2.992 0 0 0 2.993-3.005 2.978 2.978 0 0 0-2.989-2.982z"/>
</svg>
