<svg xmlns="http://www.w3.org/2000/svg" width="108" height="31">
    <path fill-rule="evenodd" d="M102.83 24.197V6.801h4.753v17.396h-4.753zm0-23.953h4.753v4.689h-4.753V.244zm-9.842 30.512c-3.314 0-6.094-.876-8.332-2.63l2.315-3.361c.715.572 1.566 1.035 2.547 1.396.983.358 2.024.54 3.124.54 2.977 0 4.466-1.352 4.466-4.056v-.288c-1.267 1.036-2.895 1.555-4.879 1.555-1.84 0-3.455-.387-4.848-1.158-1.393-.769-2.46-1.822-3.2-3.153-.738-1.328-1.108-2.797-1.108-4.405 0-1.624.37-3.099 1.108-4.419.74-1.319 1.802-2.369 3.185-3.152 1.381-.78 3.003-1.173 4.863-1.173 1.984 0 3.612.519 4.879 1.554V6.768h4.69v15.877c0 2.513-.778 4.492-2.33 5.938-1.551 1.448-3.712 2.173-6.48 2.173zm3.677-17.967a4.618 4.618 0 0 0-1.726-1.695 4.857 4.857 0 0 0-2.426-.616c-1.437 0-2.593.448-3.47 1.346-.877.897-1.313 2.024-1.313 3.372 0 1.397.428 2.531 1.282 3.408.856.877 2.023 1.314 3.501 1.314.889 0 1.695-.206 2.426-.616a4.571 4.571 0 0 0 1.726-1.713 4.674 4.674 0 0 0 .634-2.393c0-.885-.211-1.689-.634-2.407zM77.288 6.801h4.752v17.396h-4.752V6.801zm0-6.557h4.752v4.689h-4.752V.244zm-5.722 22.211c-.402.547-1.094 1.04-2.076 1.471-.983.435-2.053.651-3.215.651-1.796 0-3.355-.402-4.674-1.205a7.96 7.96 0 0 1-3.026-3.278c-.697-1.385-1.044-2.921-1.044-4.61 0-1.689.347-3.229 1.044-4.61a7.968 7.968 0 0 1 3.026-3.281c1.319-.801 2.878-1.203 4.674-1.203 1.203 0 2.265.206 3.186.616.917.413 1.619.936 2.105 1.569V.244h4.689v23.953h-4.689v-1.742zm-1.109-10.537c-.868-.918-2.029-1.378-3.486-1.378-1.478 0-2.646.46-3.502 1.378-.853.921-1.281 2.108-1.281 3.566 0 1.413.436 2.586 1.313 3.516.877.93 2.032 1.393 3.47 1.393 1.481 0 2.648-.437 3.501-1.314.856-.877 1.284-2.076 1.284-3.595 0-1.458-.434-2.645-1.299-3.566zM51.81 22.455c-.402.547-1.094 1.04-2.077 1.471-.982.435-2.052.651-3.214.651-1.798 0-3.355-.402-4.674-1.205a7.947 7.947 0 0 1-3.026-3.278c-.699-1.385-1.044-2.921-1.044-4.61 0-1.689.345-3.229 1.044-4.61a7.955 7.955 0 0 1 3.026-3.281c1.319-.801 2.876-1.203 4.674-1.203 1.203 0 2.264.206 3.184.616.919.413 1.619.936 2.107 1.569V6.768h4.688v17.429H51.81v-1.742zm-1.109-10.537c-.868-.918-2.029-1.378-3.487-1.378-1.478 0-2.645.46-3.501 1.378-.853.921-1.282 2.108-1.282 3.566 0 1.413.438 2.586 1.315 3.516.876.93 2.031 1.393 3.468 1.393 1.481 0 2.649-.437 3.502-1.314.856-.877 1.284-2.076 1.284-3.595 0-1.458-.434-2.645-1.299-3.566zm-15.24-.601c-.906.223-1.742.745-2.502 1.569-.762.824-1.14 2.026-1.14 3.609v7.702h-4.721V6.768h4.721v2.314c.78-1.035 1.736-1.736 2.867-2.105 1.129-.37 2.159-.546 3.089-.525v4.627c-.634-.064-1.405.015-2.314.238zm-12.882 6.668c0 .742.129 1.358.38 1.854.253.498.845.745 1.775.745.422 0 .824-.021 1.206-.062v3.991c-.764.085-1.47.126-2.124.126-1.352 0-2.445-.111-3.282-.331-.832-.223-1.484-.651-1.947-1.284-.466-.634-.697-1.54-.697-2.725v-9.662h-2.123V6.484h2.123V1.827h4.689v4.657h3.487v4.153h-3.487v7.348zm-12.277-6.97a7.187 7.187 0 0 0-2.504-.443c-2.008 0-2.282.897-2.282 1.299 0 .507.344.865 1.03 1.076a13.65 13.65 0 0 0 2.267.475c1.477.255 2.66.519 3.548.795 5.022 1.616 3.844 7.487 1.522 8.918-1.25.982-3.011 1.471-5.293 1.471-3.168 0-5.891-.905-8.172-2.723l2.468-3.294c.762.528 1.648.971 2.663 1.329 1.015.36 2.006.539 2.979.539 2.419 0 2.493-.93 2.493-1.373 0-.775-.669-1.365-2.367-1.495l-.982-.14c-1.267-.211-2.361-.467-3.279-.763-.921-.296-1.753-.824-2.504-1.584-.751-.759-1.126-1.806-1.126-3.138 0-2.195 2.474-5.512 7.194-5.512 1.371 0 2.639.202 3.803.604 1.161.402 2.31 1.035 3.451 1.9l-2.468 3.232a15.132 15.132 0 0 0-2.441-1.173z"/>
</svg>
