<svg xmlns="http://www.w3.org/2000/svg" width="17" height="13">
    <defs>
        <linearGradient id="a" x1="0%" x2="99.939%" y1="3.49%" y2="0%">
            <stop offset="0%" stop-color="#EBA85A"/>
            <stop offset="100%" stop-color="#EB8D5A"/>
        </linearGradient>
    </defs>
    <path fill="#00326A" fill-rule="evenodd" d="M.133 11.753V1.239A.89.89 0 0 1 .708.696H15.92c.277.09.468.272.575.543v10.514a.872.872 0 0 1-.543.543H.676a.867.867 0 0 1-.543-.543zm1.723-9.661c.01.065.055.088.088.121l6.222 6.16c.148.146.148.146.296 0l6.049-5.994.291-.287H1.856zm12.6 8.809l-.394-.409-3.034-3.153c-.073-.076-.126-.128-.232-.028-.645.611-1.299 1.214-1.945 1.825-.333.315-.801.324-1.132.005L5.881 7.366c-.157-.152-.158-.154-.307.001l-3.313 3.44c-.024.024-.066.042-.049.094h12.244zm.643-.655V2.859c-.077.009-.107.065-.146.104-1.134 1.132-2.265 2.267-3.402 3.395-.114.114-.114.177-.001.292 1.068 1.077 2.13 2.161 3.194 3.242l.355.354zm-13.572.004c.056-.052.088-.079.117-.109l3.423-3.485c.149-.152.15-.152.004-.299L1.672 2.96c-.039-.038-.067-.097-.145-.098v7.388z"/>
    <path fill="url(#a)" d="M.133 11.753V1.239A.89.89 0 0 1 .708.696H15.92c.277.09.468.272.575.543v10.514a.872.872 0 0 1-.543.543H.676a.867.867 0 0 1-.543-.543zm1.723-9.661c.01.065.055.088.088.121l6.222 6.16c.148.146.148.146.296 0l6.049-5.994.291-.287H1.856zm12.6 8.809l-.394-.409-3.034-3.153c-.073-.076-.126-.128-.232-.028-.645.611-1.299 1.214-1.945 1.825-.333.315-.801.324-1.132.005L5.881 7.366c-.157-.152-.158-.154-.307.001l-3.313 3.44c-.024.024-.066.042-.049.094h12.244zm.643-.655V2.859c-.077.009-.107.065-.146.104-1.134 1.132-2.265 2.267-3.402 3.395-.114.114-.114.177-.001.292 1.068 1.077 2.13 2.161 3.194 3.242l.355.354zm-13.572.004c.056-.052.088-.079.117-.109l3.423-3.485c.149-.152.15-.152.004-.299L1.672 2.96c-.039-.038-.067-.097-.145-.098v7.388z"/>
</svg>
